# xmcd
#
# Track frame offsets:
#	150
#	14863
#	28394
#	43935
#	56633
#	68673
#	80961
#	94160
#	104958
#	119851
#	130433
#	144967
#	154146
#
# Disc length: 2192
#
# Revision: 2
# Processed by: cddbd v1.5.1PL0 Copyright (c) Steve Scherf et al.
# Submitted via: CDex 1.51
# Normalized: r1:DSETVAR1
#
DISCID=d2088e0d
DTITLE=Various Artist - The Best Of Country Legends
DYEAR=2003
DGENRE=Country
TTITLE0=Glen Campbell - Rhinestone Cowboy
TTITLE1=Waylon Jennings and Willie Nelson - Good Hearted Woman
TTITLE2=Jimmie Rodgers - Missisippi Delta Blues
TTITLE3=Bellamy Brothers - Let Your Love Flow
TTITLE4=Bill Monroe - No Letter In The Mail
TTITLE5=Bobby Bare - 500 Miles Away From Home
TTITLE6=Kenny Rogers - Ruby, Don't Take Your Love To Town
TTITLE7=Lester Flatt - Foggy Mountain Breakdown
TTITLE8=George Jones - He Stopped Loving Her Tonight
TTITLE9=Floyd Cramer - San Antonio Rose
TTITLE10=Dolly Parton - Heartbreak Express
TTITLE11=Charly Pride - Kiss An Angel Good Mornin'
TTITLE12=Chet Atkins - Mister Sandman
EXTD=YEAR: 2003
EXTT0=
EXTT1=
EXTT2=
EXTT3=
EXTT4=
EXTT5=
EXTT6=
EXTT7=
EXTT8=
EXTT9=
EXTT10=
EXTT11=
EXTT12=
PLAYORDER=
